<?xml version="1.0" encoding="UTF-8" standalone="no"?>
<!-- Created with Inkscape (http://www.inkscape.org/) -->

<svg
   version="1.1"
   id="svg9"
   width="128"
   height="128"
   viewBox="0 0 128 128"
   xmlns:xlink="http://www.w3.org/1999/xlink"
   xmlns="http://www.w3.org/2000/svg"
   xmlns:svg="http://www.w3.org/2000/svg">
  <g>
    <path
       d="M 20.459016,60.028103 31.400469,80.262295 16.337236,88.80562 5.1709602,68.64637 Z" />
    <a
       id="a980">
      <path
         d="m 24.805621,51.185012 c 0.311375,-2.276865 2.173302,-3.222483 2.173302,-3.222483 l 68.64637,-37.770492 17.985937,32.97424 -18.13582,10.941451 c 0,0 -12.870439,-18.641167 -32.374707,-9.292739 -22.026221,10.557204 -8.018736,31.55035 -8.018736,31.55035 l -8.841877,4.583344 c 0,0 -1.942855,1.048911 -4.081797,0.681886 -2.138942,-0.367025 -3.420136,-2.609047 -3.420136,-2.609047 L 25.575634,55.05416 c 0,0 -1.081388,-1.592283 -0.770013,-3.869148 z"/>
    </a>
    <g>
      <path
         d="M 104.94456,3.9234735 124.22641,38.89642"
/>
      <path

         d="m 105.84426,0.29296875 a 3.77953,3.77953 0 0 0 -2.875,0.3203125 3.77953,3.77953 0 0 0 -1.48437,5.13476565 l 19.28125,34.9726561 a 3.77953,3.77953 0 0 0 5.13476,1.486328 3.77953,3.77953 0 0 0 1.48633,-5.134765 L 108.10403,2.0996094 a 3.77953,3.77953 0 0 0 -2.25977,-1.80664065 z"
/>
    </g>
    <g>
      <path
         d="M 40.168618,121.40516 67.147541,76.88993"
 />
      <path
         d="m 66.248047,73.21875 a 3.77953,3.77953 0 0 0 -2.332031,1.712891 L 36.935547,119.44531 a 3.77953,3.77953 0 0 0 1.273437,5.19141 3.77953,3.77953 0 0 0 5.191407,-1.27344 L 70.378906,78.849609 A 3.77953,3.77953 0 0 0 69.107422,73.658203 3.77953,3.77953 0 0 0 66.248047,73.21875 Z" />
    </g>
    <g>
      <path
         d="m 81.5363,77.339579 25.92975,43.765811"/>
      <path
         d="m 82.472656,73.677734 a 3.77953,3.77953 0 0 0 -2.863281,0.410157 3.77953,3.77953 0 0 0 -1.324219,5.177734 l 25.929684,43.765625 a 3.77953,3.77953 0 0 0 5.17774,1.32617 3.77953,3.77953 0 0 0 1.32422,-5.17773 L 84.787109,75.412109 a 3.77953,3.77953 0 0 0 -2.314453,-1.734375 z"/>
    </g>
    <path
       d="m 74.347656,49.988281 c -8.276671,0 -15.068359,6.789735 -15.068359,15.066406 0,8.276672 6.791688,15.066407 15.068359,15.066407 8.276672,0 15.066406,-6.789735 15.066406,-15.066407 0,-8.276671 -6.789734,-15.066406 -15.066406,-15.066406 z m 0,7.558594 c 4.191459,0 7.507813,3.316353 7.507813,7.507812 0,4.19146 -3.316354,7.507813 -7.507813,7.507813 -4.191458,0 -7.507812,-3.316353 -7.507812,-7.507813 0,-4.191459 3.316354,-7.507812 7.507812,-7.507812 z" />
  </g>
</svg>
